<svg width="23" height="24" viewBox="0 0 23 24" fill="none" xmlns="http://www.w3.org/2000/svg">
<path d="M21.8 4.70001H1C0.4 4.70001 0 4.30001 0 3.70001C0 3.10001 0.4 2.70001 1 2.70001H21.8C22.4 2.70001 22.8 3.10001 22.8 3.70001C22.8 4.30001 22.3 4.70001 21.8 4.70001Z" fill="black"/>
<path d="M14 4.09998C13.8 2.89998 12.7 2 11.4 2C10.2 2 9.09999 2.89998 8.79999 4.09998L6.79999 3.70001C7.19999 1.60001 9.09999 0 11.3 0C13.5 0 15.4 1.60001 15.8 3.70001L14 4.09998Z" fill="black"/>
<path d="M4.59998 24C3.59998 24 2.69998 23.1 2.59998 22.1L1.59998 4.79998C1.59998 4.19998 2 3.80001 2.5 3.70001C3.1 3.70001 3.49998 4.09997 3.59998 4.59997L4.59998 21.9L18.1 22L19.1 4.59997C19.1 3.99997 19.6 3.60001 20.2 3.70001C20.8 3.70001 21.2 4.19998 21.1 4.79998L20.1 22.1C20 23.2 19.2 24 18.1 24H4.59998Z" fill="black"/>
<path d="M7.59998 20.3C7.09998 20.3 6.59998 19.9 6.59998 19.4L5.89996 7.5C5.89996 6.9 6.29999 6.49996 6.79999 6.39996C7.29999 6.39996 7.79996 6.79999 7.89996 7.29999L8.59998 19.2C8.59998 19.8 8.19998 20.3 7.59998 20.3Z" fill="black"/>
<path d="M15.2 20.3C15.2 20.3 15.1 20.3 15.2 20.3C14.6 20.3 14.2 19.8 14.2 19.2L14.9 7.29998C14.9 6.69998 15.4 6.29996 16 6.39996C16.6 6.39996 17 6.89999 16.9 7.49999L16.2 19.4C16.1 19.9 15.7 20.3 15.2 20.3Z" fill="black"/>
<path d="M11.4 20.3C10.8 20.3 10.4 19.9 10.4 19.3V7.39996C10.4 6.79996 10.8 6.39996 11.4 6.39996C12 6.39996 12.4 6.79996 12.4 7.39996V19.3C12.4 19.9 11.9 20.3 11.4 20.3Z" fill="black"/>
</svg>
